<svg width="188.000000" height="38.000000" viewBox="0 0 188 38" fill="none" xmlns="http://www.w3.org/2000/svg" xmlns:xlink="http://www.w3.org/1999/xlink">
	<desc>
			Created with Pixso.
	</desc>
	<defs/>
	<path id="Logoipsum" d="M61.5712 29.6L61.5712 25.712L53.7952 25.712L53.7952 8.6192L48.928 8.6192L48.928 29.6L61.5712 29.6ZM69.952 29.8304C71.0848 29.8304 72.1168 29.6504 73.048 29.2904C73.9792 28.9304 74.7784 28.4168 75.4456 27.7496C76.1128 27.0824 76.6312 26.2712 77.0008 25.316C77.3704 24.3608 77.5552 23.288 77.5552 22.0976C77.5552 20.9168 77.3704 19.8536 77.0008 18.908C76.6312 17.9624 76.1128 17.1584 75.4456 16.496C74.7784 15.8336 73.9792 15.3248 73.048 14.9696C72.1168 14.6144 71.0848 14.4368 69.952 14.4368Q68.2384 14.4368 66.8344 14.9696Q65.6743 15.4099 64.7796 16.1647Q64.5915 16.3234 64.4152 16.496Q64.297 16.6116 64.1851 16.7331Q63.3354 17.6547 62.8456 18.908Q62.2912 20.3264 62.2912 22.0976Q62.2912 23.8832 62.8456 25.316Q63.3507 26.6215 64.2383 27.5683Q64.325 27.6606 64.4152 27.7496Q64.6008 27.9326 64.7994 28.1002Q65.6871 28.8491 66.8344 29.2904Q68.2384 29.8304 69.952 29.8304ZM67.6336 25.4312C68.1232 26.156 68.896 26.5184 69.952 26.5184Q70.9995 26.5184 71.671 26.0159Q71.9872 25.7792 72.22 25.4312C72.7048 24.7064 72.9472 23.6048 72.9472 22.1264Q72.9472 19.9088 72.22 18.8288C71.7352 18.1088 70.9792 17.7488 69.952 17.7488C68.896 17.7488 68.1232 18.1088 67.6336 18.8288C67.144 19.5488 66.8992 20.648 66.8992 22.1264Q66.8992 24.344 67.6336 25.4312ZM85.2736 34.7408C86.464 34.7408 87.52 34.5896 88.4416 34.2872C89.3632 33.9848 90.1407 33.584 90.7744 33.0848C91.408 32.5856 91.888 32.0144 92.2144 31.3712Q92.6157 30.5803 92.688 29.7604Q92.704 29.5801 92.704 29.3984C92.704 28.6784 92.572 28.0856 92.308 27.62C92.0439 27.1544 91.696 26.7824 91.264 26.504C90.832 26.2256 90.3376 26.024 89.7808 25.8992C89.224 25.7744 88.6576 25.6856 88.0816 25.6328C87.5056 25.58 86.9392 25.5464 86.3824 25.532C85.8256 25.5176 85.3312 25.4888 84.8992 25.4456C84.4672 25.4024 84.1192 25.3256 83.8552 25.2152C83.5912 25.1048 83.4592 24.9248 83.4592 24.6752C83.4592 24.4256 83.6224 24.2048 83.9488 24.0128C84.3616 24.0704 84.8032 24.0992 85.2736 24.0992C86.1184 24.0992 86.9104 23.9864 87.6496 23.7608C88.3888 23.5352 89.0296 23.2136 89.572 22.796C90.1144 22.3784 90.5416 21.872 90.8536 21.2768C91.1656 20.6816 91.3216 20.0096 91.3216 19.2608Q91.3216 18.7753 91.2221 18.311Q91.18 18.1144 91.12 17.9216L92.2144 17.6768C92.5504 17.6 92.788 17.4896 92.9272 17.3456C93.0664 17.2016 93.136 17.0048 93.136 16.7552L93.136 15.128L88.6288 15.128C88.1488 14.8976 87.628 14.72 87.0664 14.5952Q86.224 14.408 85.2736 14.408C84.4 14.408 83.5888 14.5208 82.84 14.7464C82.0912 14.972 81.4408 15.2936 80.8888 15.7112C80.3368 16.1288 79.9024 16.6376 79.5856 17.2376Q79.5426 17.319 79.5035 17.4023Q79.1104 18.2392 79.1104 19.2608Q79.1104 20.3482 79.5425 21.2219Q79.6483 21.4357 79.78 21.6368C80.2264 22.3184 80.8384 22.8656 81.616 23.2784C81.2704 23.4416 80.9728 23.6288 80.7232 23.84C80.4736 24.0512 80.2672 24.272 80.104 24.5024C79.9408 24.7328 79.8208 24.9704 79.744 25.2152C79.6672 25.46 79.6288 25.6928 79.6288 25.9136Q79.6288 26.7056 79.9312 27.224C80.1328 27.5696 80.4016 27.8528 80.7375 28.0736C80.0368 28.3328 79.4848 28.6904 79.0816 29.1464C78.6784 29.6024 78.4768 30.1616 78.4768 30.824C78.4768 31.3328 78.6112 31.8224 78.88 32.2928C79.1488 32.7632 79.564 33.1784 80.1255 33.5384C80.6872 33.8984 81.3928 34.1888 82.2424 34.4096C83.092 34.6304 84.1024 34.7408 85.2736 34.7408ZM84.3304 21.1976C84.5944 21.2984 84.9088 21.3488 85.2736 21.3488C86.0128 21.3488 86.548 21.164 86.8792 20.7944Q86.9741 20.6885 87.0508 20.5708Q87.376 20.0722 87.376 19.3616Q87.376 18.5576 86.9857 18.0589Q86.9357 17.9949 86.8792 17.936C86.548 17.5904 86.0128 17.4176 85.2736 17.4176C84.5344 17.4176 83.9991 17.5904 83.668 17.936Q83.6115 17.9949 83.5614 18.0589Q83.1712 18.5576 83.1712 19.3616C83.1712 19.6496 83.212 19.9136 83.2936 20.1536C83.3752 20.3936 83.5024 20.6024 83.6752 20.78C83.848 20.9576 84.0664 21.0968 84.3304 21.1976ZM83.884 31.5656C84.2728 31.6376 84.7648 31.6736 85.36 31.6736C86.0032 31.6736 86.5312 31.6352 86.944 31.5584C87.3568 31.4816 87.6855 31.376 87.9304 31.2416C88.1752 31.1072 88.3456 30.9464 88.4416 30.7592Q88.4823 30.6797 88.5115 30.5963Q88.5856 30.3847 88.5856 30.1472C88.5856 29.9072 88.5112 29.7152 88.3624 29.5712C88.2136 29.4272 88.012 29.312 87.7576 29.2256C87.5032 29.1392 87.2056 29.0768 86.8648 29.0384C86.524 29 86.1568 28.9712 85.7632 28.952C85.3696 28.9328 84.9615 28.916 84.5392 28.9016C84.1168 28.8872 83.6992 28.856 83.2864 28.808Q82.8688 29.096 82.6024 29.4488C82.4248 29.684 82.336 29.9504 82.336 30.248C82.336 30.4592 82.3816 30.6512 82.4728 30.824Q82.6096 31.0832 82.9552 31.2704C83.1856 31.3952 83.4952 31.4936 83.884 31.5656ZM101.718 29.8304C102.851 29.8304 103.883 29.6504 104.814 29.2904C105.746 28.9304 106.545 28.4168 107.212 27.7496C107.879 27.0824 108.398 26.2712 108.767 25.316Q109.322 23.8832 109.322 22.0976Q109.322 20.3264 108.767 18.908C108.398 17.9624 107.879 17.1584 107.212 16.496C106.545 15.8336 105.746 15.3248 104.814 14.9696C103.883 14.6144 102.851 14.4368 101.718 14.4368C100.576 14.4368 99.5368 14.6144 98.6008 14.9696Q97.4406 15.4099 96.546 16.1647Q96.3579 16.3234 96.1816 16.496C95.5048 17.1584 94.9816 17.9624 94.612 18.908C94.2424 19.8536 94.0576 20.9168 94.0576 22.0976C94.0576 23.288 94.2424 24.3608 94.612 25.316C94.9816 26.2712 95.5048 27.0824 96.1816 27.7496Q96.3672 27.9326 96.5658 28.1001Q97.4535 28.8491 98.6008 29.2904C99.5368 29.6504 100.576 29.8304 101.718 29.8304ZM99.4 25.4312C99.8896 26.156 100.662 26.5184 101.718 26.5184Q102.766 26.5184 103.437 26.0159Q103.754 25.7792 103.986 25.4312C104.471 24.7064 104.714 23.6048 104.714 22.1264C104.714 20.648 104.471 19.5488 103.986 18.8288Q103.758 18.4893 103.449 18.2565Q102.775 17.7488 101.718 17.7488C100.662 17.7488 99.8896 18.1088 99.4 18.8288Q98.6656 19.9088 98.6656 22.1264Q98.6656 24.344 99.4 25.4312ZM114.16 13.1696C114.534 13.1696 114.887 13.1 115.218 12.9608C115.55 12.8216 115.84 12.6344 116.09 12.3992Q116.272 12.2275 116.416 12.0286Q116.569 11.8187 116.68 11.5784C116.824 11.2664 116.896 10.9328 116.896 10.5776C116.896 10.2128 116.824 9.87201 116.68 9.55518Q116.564 9.3009 116.404 9.07965Q116.264 8.88739 116.09 8.71997C115.84 8.47998 115.55 8.29279 115.218 8.15839Q115.125 8.12036 115.029 8.08954Q114.616 7.95679 114.16 7.95679C113.795 7.95679 113.454 8.02399 113.138 8.15839Q112.887 8.26477 112.666 8.41522Q112.469 8.54993 112.295 8.71997C112.05 8.95996 111.858 9.2384 111.719 9.55518C111.58 9.87201 111.51 10.2128 111.51 10.5776C111.51 10.9328 111.58 11.2664 111.719 11.5784C111.858 11.8904 112.05 12.164 112.295 12.3992Q112.421 12.5205 112.56 12.6248Q112.826 12.8238 113.138 12.9608C113.454 13.1 113.795 13.1696 114.16 13.1696ZM116.378 29.6L116.378 14.6672L111.914 14.6672L111.914 29.6L116.378 29.6ZM124.442 34.3376L124.442 28.6064C124.874 28.9808 125.354 29.2784 125.882 29.4992Q126.674 29.8304 127.84 29.8304C128.79 29.8304 129.657 29.6336 130.439 29.24C131.222 28.8464 131.894 28.2992 132.455 27.5984C133.017 26.8976 133.454 26.072 133.766 25.1216C134.078 24.1712 134.234 23.1344 134.234 22.0112C134.234 20.8112 134.097 19.7384 133.823 18.7928Q133.413 17.3744 132.693 16.3952C132.213 15.7424 131.642 15.2432 130.979 14.8976Q130.656 14.7291 130.315 14.6154Q129.607 14.3792 128.819 14.3792C128.301 14.3792 127.823 14.432 127.386 14.5376C126.95 14.6432 126.542 14.7896 126.162 14.9768C125.783 15.164 125.428 15.3872 125.097 15.6464Q124.6 16.0352 124.168 16.5104L123.837 15.416C123.76 15.1664 123.628 14.9792 123.441 14.8544C123.254 14.7296 123.021 14.6672 122.742 14.6672L119.978 14.6672L119.978 34.3376L124.442 34.3376ZM125.536 26.324C125.93 26.4728 126.342 26.5472 126.774 26.5472C127.187 26.5472 127.566 26.4656 127.912 26.3024C128.258 26.1392 128.558 25.8776 128.812 25.5176C129.066 25.1576 129.266 24.6896 129.41 24.1136C129.554 23.5376 129.626 22.8368 129.626 22.0112C129.626 21.224 129.568 20.5616 129.453 20.024C129.338 19.4864 129.177 19.052 128.97 18.7208C128.764 18.3896 128.517 18.152 128.229 18.008C127.941 17.864 127.619 17.792 127.264 17.792C126.938 17.792 126.642 17.8232 126.378 17.8856C126.114 17.948 125.87 18.0368 125.644 18.152C125.418 18.2672 125.21 18.4136 125.018 18.5912C124.826 18.7688 124.634 18.9728 124.442 19.2032L124.442 25.5392C124.778 25.9136 125.142 26.1752 125.536 26.324ZM140.57 29.8304C141.587 29.8304 142.487 29.7056 143.27 29.456C144.052 29.2064 144.71 28.856 145.242 28.4048C145.775 27.9536 146.176 27.416 146.445 26.792L146.448 26.7839Q146.848 25.8512 146.848 24.7472C146.848 24.1424 146.75 23.624 146.553 23.192C146.356 22.76 146.094 22.3928 145.768 22.0904Q145.744 22.0678 145.719 22.0455Q145.247 21.6213 144.659 21.3272C144.246 21.1208 143.824 20.9408 143.392 20.7872C142.96 20.6336 142.538 20.4944 142.125 20.3696C141.712 20.2448 141.342 20.1128 141.016 19.9736C140.69 19.8344 140.428 19.6736 140.231 19.4912C140.034 19.3088 139.936 19.0784 139.936 18.8C139.936 18.416 140.087 18.116 140.39 17.9C140.692 17.684 141.126 17.576 141.693 17.576C142.086 17.576 142.437 17.6216 142.744 17.7128C143.051 17.804 143.327 17.9024 143.572 18.008C143.817 18.1136 144.045 18.212 144.256 18.3032C144.467 18.3944 144.678 18.44 144.89 18.44C145.091 18.44 145.257 18.4016 145.386 18.3248C145.516 18.248 145.638 18.1184 145.754 17.936L146.762 16.3664C146.483 16.088 146.162 15.8312 145.797 15.596C145.432 15.3608 145.029 15.1568 144.587 14.984C144.146 14.8112 143.673 14.6768 143.169 14.5808C142.665 14.4848 142.144 14.4368 141.606 14.4368C140.618 14.4368 139.754 14.564 139.014 14.8184C138.275 15.0728 137.661 15.416 137.171 15.848C136.682 16.28 136.314 16.7816 136.07 17.3528Q135.93 17.6788 135.843 18.0183Q135.702 18.5712 135.702 19.16Q135.702 20.1824 136.005 20.9024C136.206 21.3824 136.47 21.788 136.797 22.1192C137.123 22.4504 137.495 22.724 137.913 22.94C138.33 23.156 138.755 23.3408 139.187 23.4944C139.619 23.648 140.044 23.7848 140.462 23.9048C140.879 24.0248 141.251 24.1544 141.578 24.2936Q142.067 24.5024 142.37 24.7904Q142.488 24.9036 142.561 25.0414Q142.672 25.2539 142.672 25.5248Q142.672 25.608 142.66 25.6896Q142.638 25.848 142.571 26Q142.47 26.2304 142.254 26.4176Q142.038 26.6048 141.678 26.7128C141.438 26.7848 141.146 26.8208 140.8 26.8208C140.31 26.8208 139.905 26.7632 139.583 26.648C139.262 26.5328 138.981 26.408 138.741 26.2736C138.501 26.1392 138.278 26.0144 138.071 25.8992C137.865 25.784 137.632 25.7264 137.373 25.7264C137.094 25.7264 136.869 25.7816 136.696 25.892C136.523 26.0024 136.374 26.1536 136.25 26.3456L135.213 27.9872C135.501 28.2464 135.846 28.4888 136.25 28.7144C136.653 28.94 137.092 29.1344 137.567 29.2976C138.042 29.4608 138.534 29.5904 139.043 29.6864C139.552 29.7824 140.061 29.8304 140.57 29.8304ZM154.077 29.8304C154.557 29.8304 154.998 29.7848 155.402 29.6936Q156.006 29.5568 156.532 29.3192C156.882 29.1608 157.211 28.9688 157.518 28.7432C157.826 28.5176 158.123 28.2656 158.411 27.9872L158.685 28.8512Q158.804 29.1964 159.046 29.3824Q159.329 29.6 159.779 29.6L162.544 29.6L162.544 14.6672L158.08 14.6672L158.08 25.3088C157.677 25.6736 157.262 25.9568 156.834 26.1584C156.407 26.36 155.949 26.4608 155.459 26.4608C154.806 26.4608 154.312 26.2592 153.976 25.856C153.64 25.4528 153.472 24.8816 153.472 24.1424L153.472 14.6672L149.008 14.6672L149.008 24.1424C149.008 24.968 149.118 25.7264 149.339 26.4176C149.56 27.1088 149.886 27.7088 150.318 28.2176C150.75 28.7264 151.281 29.1224 151.91 29.4056C152.538 29.6888 153.261 29.8304 154.077 29.8304ZM170.464 29.6L170.464 18.8C170.781 18.4928 171.119 18.248 171.479 18.0656Q171.751 17.9276 172.04 17.8592Q172.324 17.792 172.624 17.792C173.277 17.792 173.771 17.9648 174.107 18.3104Q174.611 18.8288 174.611 20.1104L174.611 29.6L179.075 29.6L179.075 20.1104C179.075 19.3616 179.274 18.788 179.673 18.3896Q179.9 18.1625 180.172 18.0217Q180.615 17.792 181.178 17.792Q182.019 17.792 182.504 18.2078Q183.165 18.7739 183.165 20.1104L183.165 29.6L187.629 29.6L187.629 20.1104Q187.629 18.7712 187.283 17.7128C187.053 17.0072 186.714 16.412 186.268 15.9272Q186.165 15.8159 186.055 15.7126Q185.446 15.1415 184.605 14.8184C183.942 14.564 183.184 14.4368 182.33 14.4368C181.869 14.4368 181.406 14.4848 180.94 14.5808C180.474 14.6768 180.033 14.8256 179.615 15.0272C179.198 15.2288 178.809 15.4928 178.449 15.8192C178.089 16.1456 177.784 16.5392 177.534 17C177.227 16.2224 176.778 15.6008 176.188 15.1352Q176.096 15.0627 175.999 14.9979Q175.162 14.4368 173.949 14.4368C173.517 14.4368 173.121 14.4824 172.761 14.5736C172.401 14.6648 172.065 14.7896 171.753 14.948C171.441 15.1064 171.15 15.2936 170.882 15.5096C170.613 15.7256 170.354 15.9632 170.104 16.2224L169.859 15.416C169.782 15.1664 169.65 14.9792 169.463 14.8544C169.276 14.7296 169.043 14.6672 168.765 14.6672L166 14.6672L166 29.6L170.464 29.6Z" clip-rule="evenodd" fill="#D8D8D8" fill-opacity="1.000000" fill-rule="evenodd"/>
	<rect id="Rectangle" rx="5.600000" width="37.599998" height="37.599998" fill="#D8D8D8" fill-opacity="1.000000"/>
	<rect id="Rectangle" rx="5.600000" width="37.599998" height="37.599998" stroke="#979797" stroke-opacity="0" stroke-width="0.000000"/>
	<path id="Star" d="M19.2 26.8L10.26 31.49L11.97 21.54L4.74 14.5L14.73 13.05L19.2 4L23.66 13.05L33.65 14.5L26.42 21.54L28.13 31.49L19.2 26.8Z" fill="#FFFFFF" fill-opacity="1.000000" fill-rule="evenodd"/>
	<path id="Star" d="M10.26 31.49L11.97 21.54L4.74 14.5L14.73 13.05L19.2 4L23.66 13.05L33.65 14.5L26.42 21.54L28.13 31.49L19.2 26.8L10.26 31.49Z" stroke="#979797" stroke-opacity="0" stroke-width="0.000000"/>
</svg>
