<svg width="217.000000" height="42.000000" viewBox="0 0 217 42" fill="none" xmlns="http://www.w3.org/2000/svg" xmlns:xlink="http://www.w3.org/1999/xlink">
	<desc>
			Created with Pixso.
	</desc>
	<defs/>
	<path id="Logoipsum" d="M63.5904 27.0272L63.5904 30.8L52.0992 30.8L52.0992 10.4384L57.024 10.4384L57.024 27.0272L63.5904 27.0272ZM77.6592 30.0081C76.4016 30.6704 74.976 31.0016 73.3824 31.0016C71.7888 31.0016 70.3584 30.6704 69.0912 30.0081C67.824 29.3456 66.8304 28.3904 66.1104 27.1425Q65.0304 25.2704 65.0304 22.7648Q65.0304 20.2592 66.1104 18.3872Q66.6768 17.4056 67.4688 16.6655Q68.1872 15.9942 69.0912 15.5216Q69.1789 15.4758 69.2676 15.4321Q71.1023 14.528 73.3824 14.528Q75.7025 14.528 77.5478 15.4641Q77.6037 15.4924 77.6592 15.5216Q78.5195 15.9747 79.212 16.6105Q80.0381 17.3689 80.6256 18.3872Q81.7056 20.2592 81.7056 22.7648Q81.7056 25.2704 80.6256 27.1425C79.9056 28.3904 78.9168 29.3456 77.6592 30.0081ZM73.3824 26.7104C72.4416 26.7104 71.6496 26.3745 71.0064 25.7025C70.3632 25.0305 70.0416 24.0512 70.0416 22.7648C70.0416 21.4785 70.3632 20.4944 71.0064 19.8128C71.6496 19.1312 72.4416 18.7904 73.3824 18.7904C74.3232 18.7904 75.1104 19.1312 75.744 19.8128C76.3776 20.4944 76.6944 21.4785 76.6944 22.7648C76.6944 24.0512 76.3776 25.0305 75.744 25.7025C75.1104 26.3745 74.3232 26.7104 73.3824 26.7104ZM96.8832 37.6256C95.6928 38.3361 94.2144 38.6912 92.448 38.6912Q88.8192 38.6912 86.6448 36.9776C85.1952 35.8352 84.3264 34.2849 84.0384 32.3264L88.9056 32.3264C89.0592 32.9792 89.4096 33.488 89.9568 33.8528C90.504 34.2177 91.2192 34.4 92.1024 34.4C93.12 34.4 93.9408 34.1072 94.5648 33.5216C95.1888 32.936 95.5008 32 95.5008 30.7136L95.5008 27.8912C95.0784 28.8513 94.4256 29.6096 93.5424 30.1664Q93.5276 30.1757 93.5128 30.1849Q92.197 31.0016 90.3744 31.0016C89.0496 31.0016 87.864 30.6704 86.8176 30.0081C85.7712 29.3456 84.9456 28.3904 84.3408 27.1425C83.736 25.8944 83.4336 24.4352 83.4336 22.7648Q83.4336 20.2304 84.3408 18.3728Q85.1093 16.7993 86.3531 15.8456Q86.5776 15.6735 86.8176 15.5216Q87.2659 15.2379 87.7483 15.0351Q88.9548 14.528 90.3744 14.528Q92.1971 14.528 93.5128 15.3447Q93.5276 15.3539 93.5424 15.3632C94.4256 15.92 95.0784 16.6784 95.5008 17.6384L95.5008 14.7296L100.397 14.7296L100.397 30.7136C100.397 32.2112 100.109 33.5601 99.5328 34.76C98.9568 35.96 98.0736 36.9152 96.8832 37.6256ZM91.9584 26.6816C90.9024 26.6816 90.0528 26.3361 89.4096 25.6448C88.7664 24.9536 88.4448 23.9937 88.4448 22.7648C88.4448 21.536 88.7664 20.576 89.4096 19.8848C90.0528 19.1936 90.9024 18.848 91.9584 18.848C92.9952 18.848 93.8448 19.1984 94.5072 19.8992Q94.6243 20.0231 94.7276 20.1575Q95.5008 21.1642 95.5008 22.7648Q95.5008 24.2896 94.7764 25.2892Q94.6524 25.4603 94.5072 25.616C93.8448 26.3264 92.9952 26.6816 91.9584 26.6816ZM115.589 30.0081C114.331 30.6704 112.906 31.0016 111.312 31.0016C109.718 31.0016 108.288 30.6704 107.021 30.0081C105.754 29.3456 104.76 28.3904 104.04 27.1425Q102.96 25.2704 102.96 22.7648Q102.96 20.2592 104.04 18.3872C104.76 17.1392 105.754 16.184 107.021 15.5216Q107.109 15.4758 107.197 15.4321Q109.032 14.528 111.312 14.528Q113.632 14.528 115.477 15.4641Q115.533 15.4924 115.589 15.5216Q116.449 15.9747 117.142 16.6105Q117.968 17.3689 118.555 18.3872Q119.635 20.2592 119.635 22.7648Q119.635 25.2704 118.555 27.1425C117.835 28.3904 116.846 29.3456 115.589 30.0081ZM111.312 26.7104C110.371 26.7104 109.579 26.3745 108.936 25.7025C108.293 25.0305 107.971 24.0512 107.971 22.7648C107.971 21.4785 108.293 20.4944 108.936 19.8128C109.579 19.1312 110.371 18.7904 111.312 18.7904C112.253 18.7904 113.04 19.1312 113.674 19.8128C114.307 20.4944 114.624 21.4785 114.624 22.7648C114.624 24.0512 114.307 25.0305 113.674 25.7025C113.04 26.3745 112.253 26.7104 111.312 26.7104ZM124.675 12.7712C123.792 12.7712 123.082 12.5264 122.544 12.0368C122.006 11.5472 121.738 10.9376 121.738 10.208C121.738 9.45923 122.006 8.84003 122.544 8.3504C123.082 7.86084 123.792 7.61603 124.675 7.61603C125.558 7.61603 126.269 7.86084 126.806 8.3504C127.344 8.84003 127.613 9.45923 127.613 10.208C127.613 10.9376 127.344 11.5472 126.806 12.0368C126.269 12.5264 125.558 12.7712 124.675 12.7712ZM127.123 30.8L122.198 30.8L122.198 14.7296L127.123 14.7296L127.123 30.8ZM135.446 27.8912L135.446 38.4608L130.522 38.4608L130.522 14.7296L135.446 14.7296L135.446 17.6384C135.85 16.6784 136.493 15.92 137.376 15.3632Q137.391 15.3539 137.406 15.3447Q138.721 14.528 140.544 14.528Q141.964 14.528 143.17 15.0351Q143.652 15.2379 144.101 15.5216Q144.341 15.6736 144.565 15.8457Q145.809 16.7993 146.578 18.3728C147.182 19.6112 147.485 21.0753 147.485 22.7648C147.485 24.4352 147.182 25.8944 146.578 27.1425C145.973 28.3904 145.147 29.3456 144.101 30.0081C143.054 30.6704 141.869 31.0016 140.544 31.0016Q138.721 31.0016 137.406 30.185Q137.391 30.1758 137.376 30.1664C136.493 29.6096 135.85 28.8513 135.446 27.8912ZM138.96 26.6816C137.923 26.6816 137.074 26.3264 136.411 25.616C135.749 24.9056 135.418 23.9552 135.418 22.7648C135.418 21.5552 135.749 20.6 136.411 19.8992C137.074 19.1984 137.923 18.848 138.96 18.848C140.016 18.848 140.866 19.1936 141.509 19.8848C142.152 20.576 142.474 21.536 142.474 22.7648C142.474 23.9937 142.152 24.9536 141.509 25.6448C140.866 26.3361 140.016 26.6816 138.96 26.6816ZM160.387 30.3969C159.446 30.8 158.333 31.0016 157.046 31.0016C154.877 31.0016 153.139 30.5216 151.834 29.5616C150.528 28.6016 149.731 27.2288 149.443 25.4432L154.195 25.4432Q154.271 26.1238 154.626 26.5934Q154.811 26.8392 155.074 27.0272C155.582 27.392 156.24 27.5744 157.046 27.5744C157.603 27.5744 158.026 27.4448 158.314 27.1856C158.602 26.9265 158.746 26.5856 158.746 26.1632C158.746 25.6064 158.482 25.208 157.954 24.968C157.426 24.728 156.566 24.4736 155.376 24.2048C154.186 23.9552 153.206 23.6864 152.438 23.3984C151.67 23.1104 151.008 22.6448 150.451 22.0016C149.894 21.3584 149.616 20.48 149.616 19.3665C149.616 17.9265 150.163 16.76 151.258 15.8672Q152.899 14.528 155.894 14.528C157.93 14.528 159.557 15.0368 160.776 16.0544Q161.427 16.5976 161.904 17.2648Q162.769 18.4724 163.066 20.0864L158.458 20.0864C158.323 19.4337 158.021 18.92 157.55 18.5457C157.08 18.1712 156.49 17.984 155.779 17.984C155.222 17.984 154.8 18.104 154.512 18.3441C154.224 18.584 154.08 18.9248 154.08 19.3665C154.08 19.8656 154.344 20.2401 154.872 20.4896C155.4 20.7393 156.23 20.9888 157.363 21.2384C158.592 21.5264 159.6 21.8192 160.387 22.1168C161.174 22.4144 161.856 22.8992 162.432 23.5712C163.008 24.2432 163.296 25.1456 163.296 26.2784C163.296 27.2 163.046 28.0161 162.547 28.7264C162.048 29.4368 161.328 29.9937 160.387 30.3969ZM175.003 30.1376C174.091 30.6945 173.03 30.9728 171.821 30.9728C169.978 30.9728 168.514 30.3584 167.429 29.1296C166.344 27.9008 165.802 26.2112 165.802 24.0609L165.802 14.7296L170.698 14.7296L170.698 23.4561C170.698 24.5504 170.981 25.4 171.547 26.0048C172.114 26.6096 172.877 26.912 173.837 26.912C174.835 26.912 175.622 26.5952 176.198 25.9616C176.774 25.328 177.062 24.4257 177.062 23.2545L177.062 14.7296L182.016 14.7296L182.016 30.8L177.062 30.8L177.062 27.8912Q176.76 28.5078 176.329 29.0143Q175.774 29.6673 175.003 30.1376ZM190.339 22.2752L190.339 30.8L185.414 30.8L185.414 14.7296L190.339 14.7296L190.339 17.4656C190.762 16.5632 191.41 15.8528 192.283 15.3344Q192.315 15.3154 192.348 15.2968Q193.637 14.5568 195.35 14.5568C196.579 14.5568 197.664 14.84 198.605 15.4064C199.546 15.9728 200.256 16.7841 200.736 17.84C201.293 16.8416 202.056 16.0448 203.026 15.4496C203.995 14.8544 205.066 14.5568 206.237 14.5568C208.214 14.5568 209.77 15.1664 210.902 16.3856C212.035 17.6049 212.602 19.2993 212.602 21.4688L212.602 30.8L207.706 30.8L207.706 22.0448C207.706 21.0272 207.432 20.2352 206.885 19.6688C206.338 19.1024 205.594 18.8192 204.653 18.8192C203.674 18.8192 202.901 19.1216 202.334 19.7264C201.768 20.3312 201.485 21.1808 201.485 22.2752L201.485 30.8L196.56 30.8L196.56 22.0448Q196.56 20.6221 195.859 19.7874Q195.808 19.7265 195.754 19.6688C195.216 19.1024 194.477 18.8192 193.536 18.8192C192.557 18.8192 191.779 19.1168 191.203 19.712C190.627 20.3073 190.339 21.1616 190.339 22.2752Z" clip-rule="evenodd" fill="#D8D8D8" fill-opacity="1.000000" fill-rule="evenodd"/>
	<circle id="Oval" cx="214.399994" cy="12.800049" r="2.400000" fill="#FFFFFF" fill-opacity="1.000000"/>
	<circle id="Oval" cx="214.399994" cy="12.800049" r="2.400000" stroke="#979797" stroke-opacity="0" stroke-width="0.000000"/>
	<mask id="mask_0_261" fill="white">
		<path id="Combined Shape" d="M13.6054 13.6C13.6018 13.7329 13.6 13.8662 13.6 14C13.6 21.7301 19.686 27.9969 27.1946 28C26.9889 35.547 20.9811 41.6 13.6 41.6C6.08893 41.6 0 35.332 0 27.6C0 19.868 6.08893 13.6 13.6 13.6L13.6054 13.6ZM13.6054 13.6C13.8111 6.05298 19.8189 0 27.2 0C34.7111 0 40.8 6.26801 40.8 14C40.8 21.732 34.7111 28 27.2 28L27.1946 28C27.1982 27.8671 27.2 27.7338 27.2 27.6C27.2 19.8699 21.114 13.603 13.6054 13.6Z" clip-rule="evenodd" fill="" fill-opacity="1.000000" fill-rule="evenodd"/>
	</mask>
	<path id="Combined Shape" d="M13.6054 13.6C13.6018 13.7329 13.6 13.8662 13.6 14C13.6 21.7301 19.686 27.9969 27.1946 28C26.9889 35.547 20.9811 41.6 13.6 41.6C6.08893 41.6 0 35.332 0 27.6C0 19.868 6.08893 13.6 13.6 13.6L13.6054 13.6ZM13.6054 13.6C13.8111 6.05298 19.8189 0 27.2 0C34.7111 0 40.8 6.26801 40.8 14C40.8 21.732 34.7111 28 27.2 28L27.1946 28C27.1982 27.8671 27.2 27.7338 27.2 27.6C27.2 19.8699 21.114 13.603 13.6054 13.6Z" clip-rule="evenodd" fill="#D8D8D8" fill-opacity="1.000000" fill-rule="evenodd" mask="url(#mask_0_261)"/>
	<path id="Combined Shape" d="" fill="#979797" fill-opacity="0.000000" fill-rule="nonzero"/>
</svg>
