<svg width="190.000000" height="34.000000" viewBox="0 0 190 34" fill="none" xmlns="http://www.w3.org/2000/svg" xmlns:xlink="http://www.w3.org/1999/xlink">
	<desc>
			Created with Pixso.
	</desc>
	<defs/>
	<path id="Logoipsum" d="M53.296 22.9424L53.296 26.6L39.6448 26.6L39.6448 6.09436L44.1376 6.09436L44.1376 22.9424L53.296 22.9424ZM66.6016 25.9088C65.4496 26.5232 64.1056 26.8304 62.5696 26.8304Q60.208 26.8304 58.48 25.9088C57.328 25.2944 56.44 24.416 55.816 23.2736Q54.88 21.56 54.88 19.2272Q54.88 16.8944 55.816 15.1952C56.44 14.0624 57.328 13.184 58.48 12.56C59.632 11.936 60.9952 11.624 62.5696 11.624Q64.8736 11.624 66.6016 12.56Q67.5361 13.0662 68.2389 13.7955Q68.8358 14.4149 69.2656 15.1952Q70.2016 16.8944 70.2016 19.2272Q70.2016 21.56 69.2656 23.2736C68.6416 24.416 67.7536 25.2944 66.6016 25.9088ZM62.5696 23.5184C61.4752 23.5184 60.64 23.168 60.064 22.4672C59.488 21.7664 59.2 20.6864 59.2 19.2272C59.2 17.7872 59.4928 16.7168 60.0784 16.016C60.664 15.3152 61.4944 14.9648 62.5696 14.9648C63.6256 14.9648 64.4416 15.3152 65.0176 16.016C65.5936 16.7168 65.8816 17.7872 65.8816 19.2272C65.8816 20.6864 65.5936 21.7664 65.0176 22.4672C64.4416 23.168 63.6256 23.5184 62.5696 23.5184ZM85.768 31.2368C84.4336 32.4464 82.4704 33.0512 79.8784 33.0512C77.5744 33.0512 75.5584 32.6 73.8304 31.6976L74.4928 28.472C75.3568 28.9136 76.2304 29.24 77.1136 29.4512C77.9968 29.6624 78.8704 29.768 79.7344 29.768C80.9824 29.768 81.9136 29.48 82.528 28.904L82.6549 28.7759C83.1847 28.2003 83.4496 27.3597 83.4496 26.2544L83.449 23.702L83.4302 23.7329C83.2374 24.026 83.0038 24.3097 82.7296 24.584C82.2496 25.064 81.6688 25.4528 80.9872 25.7504C80.3056 26.048 79.5712 26.1968 78.784 26.1968C77.5168 26.1968 76.3936 25.8944 75.4144 25.2896C74.4352 24.6848 73.6672 23.8352 73.1104 22.7408Q72.2752 21.0992 72.2752 18.9104Q72.2752 16.7216 73.1104 15.0944C73.6672 14.0096 74.4352 13.16 75.4144 12.5456C76.3936 11.9312 77.5168 11.624 78.784 11.624C79.9744 11.624 81.0256 11.9168 81.9376 12.5024L82.1595 12.6527Q82.8953 13.1785 83.3475 13.8857Q83.3594 13.9044 83.3712 13.9232L83.449 14.057L83.4496 11.9984L87.7696 11.9984L87.7696 25.9088C87.7696 28.2512 87.1024 30.0272 85.768 31.2368ZM80.0512 22.8848C78.9952 22.8848 78.1552 22.5296 77.5312 21.8192Q77.5012 21.785 77.4721 21.7501Q76.5952 20.6945 76.5952 18.9104C76.5952 17.6816 76.9024 16.7168 77.5168 16.016C78.1312 15.3152 78.976 14.9648 80.0512 14.9648C81.1264 14.9648 81.9616 15.32 82.5568 16.0304Q83.4496 17.096 83.4496 18.9104C83.4496 20.1584 83.1472 21.1328 82.5424 21.8336C81.9376 22.5344 81.1072 22.8848 80.0512 22.8848ZM102.256 25.9088C101.104 26.5232 99.76 26.8304 98.224 26.8304Q95.8624 26.8304 94.1344 25.9088C92.9824 25.2944 92.0944 24.416 91.4704 23.2736Q90.5344 21.56 90.5344 19.2272Q90.5344 16.8944 91.4704 15.1952C92.0944 14.0624 92.9824 13.184 94.1344 12.56Q95.8624 11.624 98.224 11.624Q100.528 11.624 102.256 12.56Q103.19 13.0662 103.893 13.7956Q104.49 14.4149 104.92 15.1952C105.544 16.328 105.856 17.672 105.856 19.2272C105.856 20.7824 105.544 22.1312 104.92 23.2736C104.296 24.416 103.408 25.2944 102.256 25.9088ZM98.224 23.5184C97.1296 23.5184 96.2944 23.168 95.7184 22.4672C95.1424 21.7664 94.8544 20.6864 94.8544 19.2272C94.8544 17.7872 95.1472 16.7168 95.7328 16.016C96.3184 15.3152 97.1488 14.9648 98.224 14.9648C99.28 14.9648 100.096 15.3152 100.672 16.016C101.248 16.7168 101.536 17.7872 101.536 19.2272C101.536 20.6864 101.248 21.7664 100.672 22.4672C100.096 23.168 99.28 23.5184 98.224 23.5184ZM113.171 9.23358L108.477 9.23358L108.477 5.14398L113.171 5.14398L113.171 9.23358ZM112.998 26.6L108.65 26.6L108.65 11.9984L112.998 11.9984L112.998 26.6ZM120.889 24.48L120.89 32.8208L116.541 32.8208L116.541 16.1744C116.541 15.4832 116.526 14.7872 116.498 14.0864Q116.454 13.0352 116.31 11.9984L120.4 11.9984L120.676 14.461L120.722 14.348C121.059 13.588 121.6 12.968 122.344 12.488C123.237 11.912 124.278 11.624 125.469 11.624Q126.896 11.624 128.071 12.1678Q128.462 12.3484 128.824 12.5888Q129.045 12.7356 129.252 12.9004Q130.405 13.8187 131.114 15.296C131.67 16.4576 131.949 17.7968 131.949 19.3136C131.949 20.8304 131.67 22.1552 131.114 23.288Q130.434 24.6709 129.344 25.5388Q129.095 25.7372 128.824 25.9088C127.854 26.5232 126.736 26.8304 125.469 26.8304C124.278 26.8304 123.237 26.552 122.344 25.9952L122.127 25.8514Q121.581 25.4672 121.198 24.9597Q121.063 24.7811 120.949 24.5872L120.889 24.48ZM124.23 23.5184C123.136 23.5184 122.301 23.1536 121.725 22.424C121.149 21.6944 120.861 20.6384 120.861 19.256C120.861 17.8736 121.149 16.8128 121.725 16.0736C122.301 15.3344 123.136 14.9648 124.23 14.9648Q125.2 14.9648 125.906 15.3969Q126.352 15.6703 126.693 16.1168Q127.571 17.2688 127.571 19.3136Q127.571 21.3584 126.707 22.4384Q126.447 22.7632 126.12 22.9903Q125.358 23.5184 124.23 23.5184ZM144.923 25.6208C143.819 26.4272 142.298 26.8304 140.358 26.8304Q136.182 26.8304 133.763 25.0448L134.944 22.0208C135.712 22.5776 136.571 23.0048 137.522 23.3024Q138.799 23.7024 140.088 23.744Q140.237 23.7488 140.387 23.7488C141.136 23.7488 141.712 23.6288 142.115 23.3888C142.518 23.1488 142.72 22.8176 142.72 22.3952C142.72 22.0304 142.576 21.7472 142.288 21.5456C142 21.344 141.491 21.1568 140.762 20.984L138.371 20.408C136.95 20.12 135.909 19.64 135.246 18.968C134.584 18.296 134.253 17.4032 134.253 16.2896Q134.253 15.5187 134.51 14.8458Q134.704 14.3373 135.045 13.8848C135.573 13.184 136.307 12.632 137.248 12.2288Q138.659 11.624 140.531 11.624Q141.74 11.624 142.882 11.9008Q143.236 11.9866 143.584 12.0992Q144.902 12.5256 146.012 13.2653Q146.138 13.3498 146.262 13.4384L145.053 16.3472C144.304 15.8288 143.541 15.4352 142.763 15.1664C141.986 14.8976 141.232 14.7632 140.502 14.7632C139.792 14.7632 139.235 14.888 138.832 15.1376C138.429 15.3872 138.227 15.7328 138.227 16.1744C138.227 16.5008 138.347 16.76 138.587 16.952C138.827 17.144 139.254 17.3168 139.869 17.4704L142.317 18.0176Q144.563 18.536 145.571 19.5728C146.243 20.264 146.579 21.1856 146.579 22.3376Q146.579 23.4024 146.142 24.2394Q145.729 25.0323 144.923 25.6208ZM157.117 26.2512Q156.018 26.8304 154.614 26.8304C152.79 26.8304 151.427 26.3216 150.525 25.304C149.622 24.2864 149.171 22.7504 149.171 20.696L149.171 11.9984L153.52 11.9984L153.52 20.7824C153.52 21.6848 153.707 22.352 154.082 22.784C154.456 23.216 155.037 23.432 155.824 23.432C156.707 23.432 157.427 23.1248 157.984 22.5104C158.541 21.896 158.819 21.08 158.819 20.0624L158.819 11.9984L163.197 11.9984L163.197 26.6L158.963 26.6L158.963 24.471L158.948 24.4979C158.563 25.1409 158.073 25.6544 157.48 26.0384Q157.303 26.1531 157.117 26.2512ZM171.059 18.5648L171.059 26.6L166.71 26.6L166.71 16.1744C166.71 15.4832 166.696 14.7872 166.667 14.0864Q166.624 13.0352 166.48 11.9984L170.57 11.9984L170.815 14.213L170.948 13.9814C171.327 13.355 171.82 12.8428 172.427 12.4448C173.262 11.8976 174.266 11.624 175.437 11.624C176.762 11.624 177.813 11.9648 178.59 12.6464L178.753 12.7978C179.123 13.1636 179.427 13.6171 179.665 14.1581L179.745 14.355L179.841 14.1907Q179.977 13.9733 180.133 13.771Q180.675 13.0663 181.456 12.5456C182.378 11.9312 183.424 11.624 184.595 11.624C186.266 11.624 187.504 12.1328 188.31 13.1504Q189.52 14.6768 189.52 17.7584L189.52 26.6L185.171 26.6L185.171 17.9024C185.171 16.904 185.008 16.1744 184.682 15.7136C184.355 15.2528 183.818 15.0224 183.069 15.0224C182.205 15.0224 181.523 15.3344 181.024 15.9584C180.525 16.5824 180.275 17.4512 180.275 18.5648L180.275 26.6L175.926 26.6L175.926 17.9024C175.926 16.904 175.763 16.1744 175.437 15.7136Q175.331 15.5648 175.198 15.4479Q174.712 15.0224 173.853 15.0224C172.97 15.0224 172.283 15.3344 171.794 15.9584C171.304 16.5824 171.059 17.4512 171.059 18.5648Z" clip-rule="evenodd" fill="#D8D8D8" fill-opacity="1.000000" fill-rule="evenodd"/>
	<path id="Path" d="M0 0L0 2.4L28 2.4L28 0L0 0Z" fill="#D8D8D8" fill-opacity="1.000000" fill-rule="nonzero"/>
	<path id="Path" d="M0 4.79L0 7.2L28 7.2L28 4.79L0 4.79Z" fill="#D8D8D8" fill-opacity="1.000000" fill-rule="nonzero"/>
	<path id="Path" d="M0 9.59L0 12L28 12L28 9.59L0 9.59Z" fill="#D8D8D8" fill-opacity="1.000000" fill-rule="nonzero"/>
	<path id="Path" d="M0 14.4L0 16.79L28 16.79L28 14.4L0 14.4Z" fill="#D8D8D8" fill-opacity="1.000000" fill-rule="nonzero"/>
	<path id="Path" d="M0 19.2L0 21.6L28 21.6L28 19.2L0 19.2Z" fill="#D8D8D8" fill-opacity="1.000000" fill-rule="nonzero"/>
	<path id="Path" d="M0 24L0 26.4L28 26.4L28 24L0 24Z" fill="#D8D8D8" fill-opacity="1.000000" fill-rule="nonzero"/>
	<path id="Path" d="M0 28.8L0 31.2L28 31.2L28 28.8L0 28.8Z" fill="#D8D8D8" fill-opacity="1.000000" fill-rule="nonzero"/>
</svg>
